<svg width="829" height="879" viewBox="0 0 829 879" fill="none" xmlns="http://www.w3.org/2000/svg">
<path d="M256.5 451.356L272.104 487.075L278.342 501.351C279.34 503.637 279.346 506.235 278.356 508.524L199.55 690.912C196.983 696.853 201.339 703.481 207.812 703.481H360.459C364.007 703.481 367.225 705.567 368.674 708.806L381.335 737.106L437.482 865.628C440.08 871.574 435.723 878.231 429.235 878.231H96.1035C27.1198 878.231 -19.3474 807.642 7.9248 744.278L186.588 329.172C189.701 321.938 199.949 321.91 203.102 329.128L256.5 451.356Z" fill="url(#paint0_linear_1877_1929)"/>
<path d="M659.021 690.596C661.649 696.545 657.292 703.231 650.788 703.231H501.98C498.391 703.231 495.146 701.1 493.72 697.806L419.568 526.481L268.728 177.972C267.744 175.697 267.741 173.116 268.721 170.839L339.91 5.44188C343.017 -1.77684 353.234 -1.82497 356.409 5.36416L659.021 690.596Z" fill="url(#paint1_linear_1877_1929)"/>
<path d="M807.95 749.482H507.707C504.82 749.482 502.884 752.447 504.044 755.09L518.532 788.09C519.17 789.544 520.607 790.482 522.194 790.482H822.174C825.049 790.482 826.985 787.54 825.847 784.899L811.624 751.899C810.992 750.432 809.547 749.482 807.95 749.482Z" fill="url(#paint2_linear_1877_1929)"/>
<path d="M735.95 835.482H545.707C542.82 835.482 540.884 838.447 542.044 841.09L556.532 874.09C557.17 875.544 558.607 876.482 560.194 876.482H750.174C753.049 876.482 754.985 873.54 753.847 870.899L739.624 837.899C738.992 836.432 737.547 835.482 735.95 835.482Z" fill="url(#paint3_linear_1877_1929)"/>
<defs>
<linearGradient id="paint0_linear_1877_1929" x1="199.159" y1="627.316" x2="-9.93299" y2="861.763" gradientUnits="userSpaceOnUse">
<stop stop-color="#3F9DD7"/>
<stop offset="0.880611" stop-color="#AE519E"/>
</linearGradient>
<linearGradient id="paint1_linear_1877_1929" x1="463.988" y1="202.195" x2="267.74" y2="180.992" gradientUnits="userSpaceOnUse">
<stop stop-color="#3F9DD7"/>
<stop offset="1" stop-color="#B2539F"/>
</linearGradient>
<linearGradient id="paint2_linear_1877_1929" x1="819.488" y1="783.195" x2="768.544" y2="657.882" gradientUnits="userSpaceOnUse">
<stop offset="0.295914" stop-color="#3F9DD7"/>
<stop offset="1" stop-color="#B3519F"/>
</linearGradient>
<linearGradient id="paint3_linear_1877_1929" x1="750.44" y1="869.195" x2="685.379" y2="763.049" gradientUnits="userSpaceOnUse">
<stop offset="0.295914" stop-color="#3F9DD7"/>
<stop offset="1" stop-color="#B3519F"/>
</linearGradient>
</defs>
</svg>
